<svg id="Capa_1" data-name="Capa 1" xmlns="http://www.w3.org/2000/svg" viewBox="0 0 483.84 469.8"><defs><style>.cls-1{fill:#ec7895;}.cls-2{fill:#fff;}</style></defs><rect class="cls-1" width="483.84" height="469.8" rx="60.35"/><path class="cls-2" d="M404.86,79.32H195.27A39,39,0,0,0,156.93,111H135.86a17.81,17.81,0,0,0-17.81,17.81h0a17.81,17.81,0,0,0,17.81,17.81h20.37V183H135.86a17.81,17.81,0,0,0-17.81,17.81h0a17.81,17.81,0,0,0,17.81,17.81h20.37v36.34H135.86a17.81,17.81,0,0,0,0,35.62h20.37v36.34H135.86a17.81,17.81,0,0,0,0,35.62h20.37v36.34H135.86a17.81,17.81,0,0,0-17.81,17.81h0a17.81,17.81,0,0,0,17.81,17.81H157.7a39.05,39.05,0,0,0,37.57,28.41H404.86a39,39,0,0,0,39-39V118.36A39,39,0,0,0,404.86,79.32Zm-27.94,149.2-7.68,8.33c-.07.08-.13.16-.21.24L267.19,347.43a21.14,21.14,0,0,1-8.09,5.09l-41.38,12.23a4.52,4.52,0,0,1-1.31.21,2.83,2.83,0,0,1-2.39-1.17,4.25,4.25,0,0,1-.4-3.47l11.29-44.84a23.86,23.86,0,0,1,4.7-8.77L331.45,196.37c.07-.08.15-.15.22-.22l7.69-8.33a25.42,25.42,0,0,1,18.78-8.43,24.74,24.74,0,0,1,8.08,1.36,11.53,11.53,0,0,1,16.89.37,14,14,0,0,1,.33,18.31A30.54,30.54,0,0,1,376.92,228.52Z" transform="translate(-39.05 -36.2)"/></svg>